<svg width="17" height="16" viewBox="0 0 17 16" fill="none" xmlns="http://www.w3.org/2000/svg">
<path d="M1.5 1.33334H2.00526C2.85578 1.33334 3.56986 1.97376 3.6621 2.81926L4.3379 9.01409C4.43014 9.85959 5.14422 10.5 5.99474 10.5H13.205C13.9669 10.5 14.6317 9.98341 14.82 9.24519L15.9699 4.73593C16.2387 3.68213 15.4425 2.65742 14.355 2.65742H4.5M4.52063 13.5208H5.14563M4.52063 14.1458H5.14563M13.6873 13.5208H14.3123M13.6873 14.1458H14.3123M5.66667 13.8333C5.66667 14.2936 5.29357 14.6667 4.83333 14.6667C4.3731 14.6667 4 14.2936 4 13.8333C4 13.3731 4.3731 13 4.83333 13C5.29357 13 5.66667 13.3731 5.66667 13.8333ZM14.8333 13.8333C14.8333 14.2936 14.4602 14.6667 14 14.6667C13.5398 14.6667 13.1667 14.2936 13.1667 13.8333C13.1667 13.3731 13.5398 13 14 13C14.4602 13 14.8333 13.3731 14.8333 13.8333Z" stroke="#807D7E" stroke-width="1.5" stroke-linecap="round"/>
</svg>
