<svg width="20" height="20" viewBox="0 0 20 20" fill="none" xmlns="http://www.w3.org/2000/svg">
<g clip-path="url(#clip0_787_4153)">
<path d="M19.4678 2.5624C19.1241 2.4999 18.8116 2.71865 18.7491 3.0624L18.4678 4.8124C17.3116 4.34365 15.9678 4.4999 14.9678 5.3124C14.1553 5.96865 12.9678 5.96865 12.1553 5.3124C10.8741 4.28115 9.06155 4.28115 7.7803 5.3124C6.9678 5.96865 5.7803 5.96865 4.9678 5.3124C3.9678 4.4999 2.62405 4.34365 1.4678 4.8124L1.24905 3.0624C1.18655 2.71865 0.874055 2.4999 0.530305 2.5624C0.186555 2.59365 -0.0321953 2.90615 -0.000945307 3.2499L2.1553 16.9061C2.2178 17.2186 2.4678 17.4374 2.7803 17.4374H17.2178C17.5303 17.4374 17.7803 17.2186 17.8428 16.9061L19.9991 3.2499C20.0303 2.90615 19.8116 2.59365 19.4678 2.5624ZM16.6866 16.2187H3.31155L1.7178 6.09365C2.49905 5.65615 3.49905 5.71865 4.2178 6.28115C5.49905 7.3124 7.31155 7.3124 8.5928 6.28115C9.4053 5.6249 10.5928 5.6249 11.4053 6.28115C12.0303 6.78115 12.8116 7.0624 13.5928 7.0624C14.3741 7.0624 15.1553 6.8124 15.7803 6.28115C16.4991 5.6874 17.4991 5.6249 18.2803 6.09365L16.6866 16.2187Z" fill="#434343"/>
<path d="M8.3125 10.7812L9.1875 9.78125V9.125H6.53125V9.9375H7.90625L7.0625 10.9063V11.625C7.3125 11.5312 7.5 11.5 7.65625 11.5C7.90625 11.5 8.125 11.5625 8.25 11.6562C8.40625 11.75 8.46875 11.9062 8.46875 12.0938C8.46875 12.2812 8.40625 12.4062 8.28125 12.5C8.15625 12.5937 8 12.6562 7.8125 12.6562C7.5 12.6562 7.125 12.5 6.71875 12.2187L6.3125 13C6.8125 13.3437 7.28125 13.5 7.78125 13.5C8.25 13.5 8.65625 13.375 8.96875 13.125C9.28125 12.875 9.4375 12.5 9.4375 12.0625C9.4375 11.75 9.34375 11.5 9.15625 11.25C8.9375 11 8.65625 10.8437 8.3125 10.7812Z" fill="#434343"/>
<path d="M11.9062 9C11.3125 9 10.8437 9.21875 10.5625 9.625C10.25 10.0312 10.125 10.5938 10.125 11.25C10.125 11.9375 10.2812 12.4688 10.5625 12.875C10.875 13.2813 11.3125 13.5 11.9062 13.5C12.5 13.5 12.9688 13.2813 13.25 12.875C13.5625 12.4688 13.6875 11.9063 13.6875 11.25C13.6875 10.5625 13.5312 10.0312 13.25 9.625C12.9375 9.21875 12.5 9 11.9062 9ZM12.5312 12.3125C12.4062 12.5625 12.1875 12.7188 11.875 12.7188C11.5937 12.7188 11.375 12.5938 11.25 12.3125C11.125 12.0625 11.0312 11.6875 11.0312 11.25C11.0312 10.8125 11.0937 10.4687 11.25 10.1875C11.375 9.9375 11.5937 9.78125 11.875 9.78125C12.1562 9.78125 12.375 9.90625 12.5312 10.1875C12.6562 10.4375 12.75 10.8125 12.75 11.25C12.75 11.6875 12.6875 12.0313 12.5312 12.3125Z" fill="#434343"/>
</g>
<defs>
<clipPath id="clip0_787_4153">
<rect width="20" height="20" fill="white"/>
</clipPath>
</defs>
</svg>
