<svg width="15" height="14" viewBox="0 0 15 14" fill="none" xmlns="http://www.w3.org/2000/svg">
<path fill-rule="evenodd" clip-rule="evenodd" d="M13.5 0.75036C13.9142 0.75036 14.25 1.08615 14.25 1.50036V8.25036C14.25 8.66457 13.9142 9.00036 13.5 9.00036H12.75C12.3358 9.00036 12 8.66457 12 8.25036V1.50036C12 1.08615 12.3358 0.75036 12.75 0.75036H13.5ZM1.97727 9.29098C1.30227 9.29098 0.75 8.6997 0.75 7.97706C0.759695 6.97274 0.783758 6.41882 0.822192 6.31529C0.860626 6.21175 1.49111 4.61957 2.71364 1.53872C2.89773 1.07885 4.40981 0.75036 4.90072 0.75036H9.21C9.885 0.75036 10.875 1.34163 10.875 2.0643V9.00036L6.80457 13.2124L6.80226 13.2148C6.44071 13.5863 5.84646 13.5943 5.47498 13.2328C5.35227 13.0357 5.22955 12.7729 5.22955 12.5101C5.22955 12.4444 5.22955 12.3787 5.22955 12.313L5.84318 9.29098H1.97727Z" fill="#C4C4C4"/>
</svg>
