<svg width="24" height="25" viewBox="0 0 24 25" fill="none" xmlns="http://www.w3.org/2000/svg">
<path d="M10.0328 3.77141C10.8375 2.0762 13.1625 2.0762 13.9672 3.77141L15.3579 6.70118C15.6774 7.37435 16.2951 7.84094 17.0096 7.94888L20.1193 8.41869C21.9187 8.69053 22.6371 10.9895 21.3351 12.3091L19.0849 14.5896C18.5679 15.1136 18.332 15.8685 18.454 16.6084L18.9852 19.8285C19.2926 21.6918 17.4116 23.1126 15.8022 22.2329L13.0208 20.7126C12.3817 20.3633 11.6183 20.3633 10.9792 20.7126L8.19776 22.2329C6.58839 23.1126 4.70742 21.6918 5.01479 19.8286L5.54599 16.6084C5.66804 15.8685 5.43211 15.1136 4.91508 14.5896L2.66488 12.3091C1.36287 10.9895 2.08133 8.69053 3.88066 8.41869L6.99037 7.94888C7.70489 7.84094 8.32257 7.37435 8.64211 6.70118L10.0328 3.77141Z" stroke="#C4C4C4" stroke-linejoin="round"/>
</svg>
