<svg version="1.1" id="Layer_1" xmlns="http://www.w3.org/2000/svg" xmlns:xlink="http://www.w3.org/1999/xlink" x="0px" y="0px"
	 width="100%" viewBox="0 0 512 512" enable-background="new 0 0 512 512" xml:space="preserve">
<path fill="#000000" opacity="1.000000" stroke="none" 
	d="
M351.000000,513.000000 
	C234.374695,513.000000 117.749405,513.000000 1.062053,513.000000 
	C1.062053,342.435242 1.062053,171.870453 1.062053,1.000000 
	C117.689812,1.000000 234.379898,1.000000 351.824768,1.305019 
	C338.761963,9.283069 329.051117,21.592878 318.136108,32.471687 
	C252.639755,97.750809 187.299637,163.186722 121.939713,228.602631 
	C118.806107,231.738937 116.122948,235.325790 112.984230,238.456406 
	C103.128448,248.286728 104.703308,267.511597 114.739136,277.485474 
	C189.192291,351.479065 263.295959,425.824249 337.576813,499.991516 
	C341.374115,503.783020 345.826447,506.913300 349.880310,510.458344 
	C350.511627,511.010437 350.639404,512.138367 351.000000,513.000000 
z"/>
<path fill="#000000" opacity="1.000000" stroke="none" 
	d="
M373.000000,1.000001 
	C419.640900,1.000000 466.281769,1.000000 512.961304,1.000000 
	C512.961304,171.546600 512.961304,342.093231 512.961304,513.000000 
	C466.646393,513.000000 420.291870,513.000000 373.178894,512.695007 
	C382.799286,506.937469 390.315826,498.140076 398.428955,490.056549 
	C411.083801,477.447998 410.927521,459.327423 398.418152,446.848175 
	C336.367645,384.946991 274.429169,322.933533 212.457016,260.953857 
	C211.197205,259.693909 210.007507,258.363800 208.142654,256.384583 
	C209.822311,255.063828 211.388031,254.071014 212.667816,252.792068 
	C274.781921,190.718842 336.850037,128.599564 398.988495,66.550682 
	C407.521851,58.029629 411.641388,43.286442 403.979187,33.046375 
	C395.934906,22.295769 385.176544,13.577143 375.619049,3.955873 
	C374.692810,3.023446 373.870544,1.987758 373.000000,1.000001 
z"/>
<path fill="#FFFFFF" opacity="1.000000" stroke="none" 
	d="
M372.531464,1.000001 
	C373.870544,1.987758 374.692810,3.023446 375.619049,3.955873 
	C385.176544,13.577143 395.934906,22.295769 403.979187,33.046375 
	C411.641388,43.286442 407.521851,58.029629 398.988495,66.550682 
	C336.850037,128.599564 274.781921,190.718842 212.667816,252.792068 
	C211.388031,254.071014 209.822311,255.063828 208.142654,256.384583 
	C210.007507,258.363800 211.197205,259.693909 212.457016,260.953857 
	C274.429169,322.933533 336.367645,384.946991 398.418152,446.848175 
	C410.927521,459.327423 411.083801,477.447998 398.428955,490.056549 
	C390.315826,498.140076 382.799286,506.937469 372.710205,512.695007 
	C365.979034,513.000000 358.958099,513.000000 351.468567,513.000000 
	C350.639404,512.138367 350.511627,511.010437 349.880310,510.458344 
	C345.826447,506.913300 341.374115,503.783020 337.576813,499.991516 
	C263.295959,425.824249 189.192291,351.479065 114.739136,277.485474 
	C104.703308,267.511597 103.128448,248.286728 112.984230,238.456406 
	C116.122948,235.325790 118.806107,231.738937 121.939713,228.602631 
	C187.299637,163.186722 252.639755,97.750809 318.136108,32.471687 
	C329.051117,21.592878 338.761963,9.283069 352.289795,1.305019 
	C358.687653,1.000000 365.375275,1.000000 372.531464,1.000001 
z"/>
</svg>