<svg width="15" height="14" viewBox="0 0 15 14" fill="none" xmlns="http://www.w3.org/2000/svg">
<path fill-rule="evenodd" clip-rule="evenodd" d="M1.5 13.2501C1.08579 13.2501 0.75 12.9143 0.75 12.5001V5.75013C0.75 5.33591 1.08579 5.00013 1.5 5.00013H2.25C2.66421 5.00013 3 5.33591 3 5.75013V12.5001C3 12.9143 2.66421 13.2501 2.25 13.2501H1.5ZM13.0227 4.70951C13.6977 4.70951 14.25 5.30079 14.25 6.02343C14.2403 7.02774 14.2162 7.58167 14.1778 7.6852C14.1394 7.78874 13.5089 9.38092 12.2864 12.4618C12.1023 12.9216 10.5902 13.2501 10.0993 13.2501H5.79C5.115 13.2501 4.125 12.6589 4.125 11.9362V5.00013L8.19543 0.788068L8.19774 0.785679C8.55929 0.414193 9.15354 0.406139 9.52502 0.76769C9.64773 0.964781 9.77045 1.22757 9.77045 1.49036C9.77045 1.55605 9.77045 1.62175 9.77045 1.68745L9.15682 4.70951H13.0227Z" fill="#C4C4C4"/>
</svg>
