<svg version="1.1" id="Layer_1" xmlns="http://www.w3.org/2000/svg" xmlns:xlink="http://www.w3.org/1999/xlink" x="0px" y="0px"
	 width="100%" viewBox="0 0 512 512" enable-background="new 0 0 512 512" xml:space="preserve">
<path fill="#000000" opacity="1.000000" stroke="none" 
	d="
M162.000000,1.000000 
	C278.958527,1.000000 395.917084,1.000000 512.937805,1.000000 
	C512.937805,171.564682 512.937805,342.129395 512.937805,513.000000 
	C396.310181,513.000000 279.620117,513.000000 162.175323,512.695679 
	C172.011826,506.518433 179.371384,497.012878 187.720978,488.683014 
	C258.479401,418.091705 329.094269,347.356476 399.839417,276.751831 
	C405.258728,271.343262 407.532166,264.851746 407.927856,257.623596 
	C408.462158,247.864197 403.726044,240.235962 397.082977,233.592697 
	C322.875458,159.382919 248.682465,85.158562 174.394302,11.029574 
	C171.469940,8.111476 167.594543,6.158817 164.243927,3.647360 
	C163.341522,2.970952 162.739761,1.893408 162.000000,1.000000 
z"/>
<path fill="#000000" opacity="1.000000" stroke="none" 
	d="
M141.000000,513.000000 
	C94.359123,513.000000 47.718243,513.000000 1.038682,513.000000 
	C1.038682,342.453430 1.038682,171.906860 1.038682,1.000000 
	C47.353607,1.000000 93.708145,1.000000 140.821014,1.304357 
	C130.984726,7.483775 123.966408,17.340687 115.214104,25.267618 
	C103.496132,35.880539 103.904663,55.578442 115.217537,66.843315 
	C177.447113,128.808884 239.478363,190.973618 301.571442,253.076248 
	C302.828766,254.333771 304.010742,255.666641 305.796844,257.570984 
	C304.119507,258.926178 302.582550,259.953461 301.299927,261.235229 
	C239.063721,323.430389 176.802368,385.600555 114.690056,447.919312 
	C106.575035,456.061310 103.838722,466.017639 107.759727,477.322510 
	C112.151413,489.984467 123.180420,497.018188 131.959091,505.934723 
	C134.619843,508.637238 137.967163,510.663818 141.000000,513.000000 
z"/>
<path fill="#FFFFFF" opacity="1.000000" stroke="none" 
	d="
M141.468536,513.000000 
	C137.967163,510.663818 134.619843,508.637238 131.959091,505.934723 
	C123.180420,497.018188 112.151413,489.984467 107.759727,477.322510 
	C103.838722,466.017639 106.575035,456.061310 114.690056,447.919312 
	C176.802368,385.600555 239.063721,323.430389 301.299927,261.235229 
	C302.582550,259.953461 304.119507,258.926178 305.796844,257.570984 
	C304.010742,255.666641 302.828766,254.333771 301.571442,253.076248 
	C239.478363,190.973618 177.447113,128.808884 115.217537,66.843315 
	C103.904663,55.578442 103.496132,35.880539 115.214104,25.267618 
	C123.966408,17.340687 130.984726,7.483775 141.289673,1.304357 
	C147.687637,1.000000 154.375290,1.000000 161.531464,1.000000 
	C162.739761,1.893408 163.341522,2.970952 164.243927,3.647360 
	C167.594543,6.158817 171.469940,8.111476 174.394302,11.029574 
	C248.682465,85.158562 322.875458,159.382919 397.082977,233.592697 
	C403.726044,240.235962 408.462158,247.864197 407.927856,257.623596 
	C407.532166,264.851746 405.258728,271.343262 399.839417,276.751831 
	C329.094269,347.356476 258.479401,418.091705 187.720978,488.683014 
	C179.371384,497.012878 172.011826,506.518433 161.710312,512.695679 
	C155.312363,513.000000 148.624710,513.000000 141.468536,513.000000 
z"/>
</svg>